<svg id="Layer_1" data-name="Layer 1" xmlns="http://www.w3.org/2000/svg" xmlns:xlink="http://www.w3.org/1999/xlink" viewBox="0 0 1000 1000"><defs><style>.cls-1{fill:none;}.cls-2{fill:#19315c;}.cls-2,.cls-3,.cls-4{fill-rule:evenodd;}.cls-3{fill:#fff;}.cls-4{fill:#ffcb05;}.cls-5{clip-path:url(#clip-path);}.cls-6{fill:#a8aaab;}</style><clipPath id="clip-path"><path class="cls-1" d="M284.79,501.6l-.32,33.84v.32c-.64,29.06,2.87,58.76,14.37,85.58,16.6,39.27,48.53,62.9,85.25,82.38,37,19.8,77.27,36.72,116.23,53,39-16.28,78.87-33.2,116.23-53,36.72-19.48,68.65-43.11,85.25-82.38,11.5-26.82,14.69-56.84,14.37-85.58v-.32l-1-143.69c-32.88-6.7-71.52-10.21-111.75-10.21-120.38.32-257,32.88-318.67,120.06"/></clipPath></defs><path class="cls-2" d="M500.32,776.52c58.11-23.95,97.71-42.47,124.53-56.84,40.55-21.39,75-47.57,93.24-91.32,10.85-25.54,16.28-56.2,15.64-92.92-.31-86.53-.63-172.74-1.27-259.28-126.77-70.24-338.15-70.24-464.92,0-.32,86.54-.64,172.75-1.27,259.28-.64,36.72,4.79,67.38,15.64,92.92,18.52,43.43,53,69.93,93.24,91.32,27.46,14.37,67.06,32.89,125.17,56.84"/><path class="cls-3" d="M605.37,294.68l-15-29.37a9.15,9.15,0,0,0-2.55-3.2,7.33,7.33,0,0,0-4.15-.95v-2.88h21.07v2.88h-.64a14.81,14.81,0,0,0-4.47.64,1.62,1.62,0,0,0-1.27,1.59,1.18,1.18,0,0,0,.32,1,7.46,7.46,0,0,1,1,2.23l12.14,23L622.3,268.5a4.67,4.67,0,0,0,.63-1.92,3.42,3.42,0,0,0,.32-1.59,3.37,3.37,0,0,0-1.59-2.88,9.09,9.09,0,0,0-4.79-.95v-2.88h17.88v2.88c-3.19.32-5.43,2.23-7.35,6.06a1,1,0,0,0-.31.64l-13.42,25.55v16c0,2.88.32,4.79,1.28,5.75s2.56,1.28,5.43,1.28H622v2.87H597.39V316.4H599c2.55,0,4.47-.32,5.1-1.28,1-1,1.28-2.87,1.28-6.07V294.68m-27.46-36.4L583,273l-2.55,1c-4.16-5.43-7.67-8.94-9.9-10.54a12.79,12.79,0,0,0-7.67-2.23,4.12,4.12,0,0,0-2.55.64c-.64.31-.64,1.27-.64,2.55v45c0,3.2.32,5.11,1.28,6.07s2.55,1.28,5.43,1.28H568v2.87H543.43v-2.87H545c2.56,0,4.47-.32,5.43-1.28s1.28-2.87,1.28-6.07v-45a4.89,4.89,0,0,0-.64-2.55,4.94,4.94,0,0,0-2.55-.64,15.36,15.36,0,0,0-7.67,2.23c-2.23,1.6-5.75,5.11-9.9,10.54l-2.55-1,5.11-14.69Zm-53.32,0v3.2H523c-2.87,0-4.47.32-5.43,1.27s-1.28,2.88-1.28,6.39v39.91c0,3.52.32,5.43,1.28,6.39s2.56,1.6,5.43,1.6h1.6v2.87H500V317h1c2.87,0,4.79-.32,5.75-1.28s1.27-2.88,1.27-6.39V269.14c0-3.51-.32-5.75-1.27-6.39-1-.95-2.56-1.27-5.43-1.27H500v-3.2Zm-45,4.15-20.75,57.16h-2.24L435.5,263.07v42.47c0,3.83.64,6.39,1.92,8.3,1.27,1.6,3.19,2.56,6.06,2.88v3.19H423.37v-3.19c2.87-.32,5.1-1.28,6.38-2.88s1.92-4.47,1.92-8V270.1c0-3.83-.32-6.39-1.28-7.35s-2.55-1.27-5.11-1.27h-1.59v-3.2h17.56l18.2,48.86,17.88-48.86h18.52v3.2h-1.6c-2.55,0-4.47.32-5.43,1.27s-1.27,3.2-1.27,6.71v39.91c0,3.2.32,5.11,1.27,6.07s2.56,1.28,5.11,1.28h1.6v2.87H471.26v-2.87h1.28c2.55,0,4.47-.32,5.43-1.28s1.27-2.87,1.27-6.07V262.43ZM365.25,319.91V317a7.83,7.83,0,0,0,4.79-1.6,17,17,0,0,0,3.19-6.07l16.29-49.81,6.7-2.24,18.21,54a12.06,12.06,0,0,0,1.27,2.87c.64,1,1,1.6,1.6,1.92a2.44,2.44,0,0,0,1.6.64c.63,0,1.59.32,2.87.32v2.87H399.1V317h.64a10.33,10.33,0,0,0,5.11-1,3.37,3.37,0,0,0,1.59-2.88,2.39,2.39,0,0,0-.32-1.27,4.55,4.55,0,0,0-.64-1.92l-3.83-11.49H380.26l-2.87,9.58a2.84,2.84,0,0,0-.32,1.59v1.92c0,1.91.32,3.19,1.27,4.15s2.24,1.28,4.47,1.28h1v2.87Zm16.29-25.23h18.84l-9.26-29.05Z"/><path class="cls-3" d="M619.42,350.24l-8-14.68a7,7,0,0,0-1.28-1.6,4.72,4.72,0,0,0-2.23-.32V332H619.1v1.6h-.32c-.95,0-1.91,0-2.23.32-.64.32-.64.32-.64,1v.64c0,.31.32.63.64.95l6.38,11.5,5.75-10.54a1.18,1.18,0,0,0,.32-1v-.95c0-.64-.32-1-1-1.28a6.19,6.19,0,0,0-2.55-.32v-1.6h9.58V334a5.69,5.69,0,0,0-3.83,2.87c0,.32,0,.32-.32.32l-7,12.77v8a4.59,4.59,0,0,0,.64,2.87,5.39,5.39,0,0,0,2.87.64h1V363H615.27v-1.6h1a6.34,6.34,0,0,0,2.87-.64,4.59,4.59,0,0,0,.64-2.87v-7.67m-15-18.52,2.56,7.35-1.28.64a27.67,27.67,0,0,0-5.43-5.43,9,9,0,0,0-4.15-1.28c-.64,0-1.28,0-1.28.32-.32.32-.32.64-.32,1.28v22.67a2.74,2.74,0,0,0,3.52,3.51h1v1.6H585.89v-1.6h1a2.74,2.74,0,0,0,3.51-3.51V334.6c0-.64,0-1-.31-1.28s-.64-.32-1.28-.32a6.39,6.39,0,0,0-4.15,1.28,40.79,40.79,0,0,0-5.43,5.43l-1.6-.64,2.56-7.35Zm-28.42,0v1.6h-.95a4.61,4.61,0,0,0-2.88.64,5.92,5.92,0,0,0-.64,3.19V357a5.89,5.89,0,0,0,.64,3.19c.64.64,1.6.64,2.88.64H576v1.6H562.9v-1.6h.64a4.61,4.61,0,0,0,2.88-.64c.63-.32.63-1.59.63-3.19V336.83a6,6,0,0,0-.63-3.19,5.41,5.41,0,0,0-2.88-.64h-.64v-1.6h13.41Zm-35.44,31.62L537.68,355l1.6-.64a29.55,29.55,0,0,0,5.74,5.43,10.29,10.29,0,0,0,5.75,1.92,6.91,6.91,0,0,0,4.47-1.6,5.6,5.6,0,0,0,1.92-4.15,6.06,6.06,0,0,0-1.6-4.15c-1-1-3.51-1.92-6.71-2.87a1.17,1.17,0,0,1-1-.32,11.94,11.94,0,0,1-6.07-2.88,7.45,7.45,0,0,1-1.92-2.87,11.35,11.35,0,0,1-.63-3.19,7.46,7.46,0,0,1,2.55-5.75,8.69,8.69,0,0,1,6.39-2.24,14.12,14.12,0,0,1,3.19.64c1.28.32,1.91.64,2.23.64a1.92,1.92,0,0,0,1.28-.32c.64,0,1-.32,1.6-.64l3.19,7.67-1.28.64a27.9,27.9,0,0,0-5.11-5.43,8.46,8.46,0,0,0-5.1-1.92,6.74,6.74,0,0,0-4.16,1.6,5.31,5.31,0,0,0-1.59,3.83,4.55,4.55,0,0,0,.64,2.23,8.42,8.42,0,0,0,1.59,1.92,17.17,17.17,0,0,0,6.07,2.24,3.48,3.48,0,0,0,1.6.32,10.18,10.18,0,0,1,6.06,3.51,9,9,0,0,1-7,14.69,21.51,21.51,0,0,1-4.47-.64,6.38,6.38,0,0,0-2.56-.64,2.39,2.39,0,0,0-1.27.32,4.25,4.25,0,0,0-2.24,1M516.6,346.09h3.52a9.89,9.89,0,0,0,6.06-1.59q1.92-1.44,1.92-4.79a6.72,6.72,0,0,0-1.92-5.11,9.44,9.44,0,0,0-5.74-1.6,7.46,7.46,0,0,0-3.52.64c-.64.32-.95,1.6-.95,2.87v9.58Zm12.14,16.61-8.62-15H516.6v9.9a4.59,4.59,0,0,0,.64,2.87,5.41,5.41,0,0,0,2.88.64h.64v1.6h-13.1v-1.6h.64a4.61,4.61,0,0,0,2.88-.64,5.92,5.92,0,0,0,.63-3.19V337.15a4.61,4.61,0,0,0-.63-2.87,5.41,5.41,0,0,0-2.88-.64h-.64V332h13.1c4.15,0,7,.64,9.26,2.24a6.58,6.58,0,0,1,3.19,6.07,5.72,5.72,0,0,1-2.24,4.78c-1.59,1.28-3.51,1.92-6.7,2.56l6.06,9.9a15.75,15.75,0,0,0,2.56,3.19c.64.64,1.91.64,3.19.64h.32V363h-7.66Zm-51.41,0v-1.6H478a4.59,4.59,0,0,0,2.87-.64,5.89,5.89,0,0,0,.64-3.19V337.15a5.92,5.92,0,0,0-.64-3.19,5.39,5.39,0,0,0-2.87-.64h-.64v-1.6h23l3.19,7.35-1.27.32a19.56,19.56,0,0,0-5.43-5.11,11.43,11.43,0,0,0-6.07-1.28,9.13,9.13,0,0,0-3.83.64c-.64.32-1,1.28-1,2.87v8.94h2.24a7.19,7.19,0,0,0,4.79-1.27c.95-.64,1.59-1.92,1.91-3.83h1.6v11.81h-1.6A7.26,7.26,0,0,0,493,348c-1-1-2.56-1.28-4.79-1.28H486v10.54a3.13,3.13,0,0,0,1,2.55,6.34,6.34,0,0,0,2.87.64,16.78,16.78,0,0,0,7.35-1.59,14.57,14.57,0,0,0,5.74-5.11l1.28.32-3.19,8H477.33Zm-17.24.95-9.26-25.54v-.32c-1-2.87-2.88-4.47-4.79-4.47v-1.6h12.13v1.6c-1.28,0-2.23.32-2.87.32q-1,.48-1,1v.64c0,.32.32.95.32,1.27L462,356l6.71-18.84c0-.32.32-.64.32-1v-.95a1.76,1.76,0,0,0-1-1.6,6.38,6.38,0,0,0-2.87-.64v-1.6h9.89V333a3.63,3.63,0,0,0-2.55,1,8.93,8.93,0,0,0-1.6,2.55L461,363.34h-1Zm-15.65-31.93v1.6h-1a4.59,4.59,0,0,0-2.87.64,5.92,5.92,0,0,0-.64,3.19V357a5.89,5.89,0,0,0,.64,3.19c.32.64,1.6.64,2.87.64h.64v1.6H431v-1.6h.64a4.59,4.59,0,0,0,2.87-.64c.64-.32.64-1.59.64-3.19V336.83a5.92,5.92,0,0,0-.64-3.19,5.37,5.37,0,0,0-2.87-.64H431v-1.6h13.41Zm-39,0,17.89,23.95V338.75c0-1.92-.32-3.51-1-4.15-.64-1-1.92-1.28-3.51-1.28v-1.6h11.49v1.6c-1.6,0-2.87.32-3.51,1.28a7.22,7.22,0,0,0-1,4.15V363h-1.6l-19.47-26.19V355c0,1.92.32,3.52.95,4.15.64,1,1.92,1.28,3.52,1.28v1.6h-11.5v-1.6c1.6,0,2.87-.32,3.51-1.28a7.2,7.2,0,0,0,1-4.15V335.24a6.79,6.79,0,0,0-1.91-1.28,6.39,6.39,0,0,0-2.88-.64v-1.6Zm-19.15,1.92V332h10.53v1.6a4.26,4.26,0,0,0-3.19,1.28,7.2,7.2,0,0,0-1,4.15V351.2c0,4.15-1,7.35-2.87,9.26s-4.79,2.88-8.62,2.88-6.71-1-8.62-2.88-2.88-4.47-2.88-8.3V336.83a2.74,2.74,0,0,0-3.51-3.51h-.64V332h12.77v1.6h-.95a5.41,5.41,0,0,0-2.88.64,5.89,5.89,0,0,0-.64,3.19v16a9.5,9.5,0,0,0,1.92,6.38,8.74,8.74,0,0,0,6.07,2.24c2.87,0,4.79-.64,6.38-2.24,1.28-1.59,1.92-4.15,1.92-7.34V339.71a7.2,7.2,0,0,0-1-4.15c-.32-1.6-1.28-1.92-2.87-1.92"/><path class="cls-4" d="M500.32,757c39-16.28,79.19-33.52,116.23-53,36.72-19.48,68.65-43.11,85.25-82.38,11.5-26.83,14.69-56.84,14.37-85.58v-.32l-1-143.69c-130.91-26.18-348-7-430.11,109.85l-.31,33.84v.32c-.64,29.06,2.87,58.75,14.36,85.58,16.61,39.27,48.54,62.9,85.26,82.38,36.72,19.8,76.63,37,115.91,53"/><g class="cls-5"><path class="cls-2" d="M505.11,687.75a3.72,3.72,0,0,0,1.28,4.47c1.59,1.28,3.83,1.28,5.74,1.28,20.76.64,38-5.75,51.41-19.16,1.92-1.91,1.6-4.79-.32-4.47-15.32,10.86-32.57,17.25-50.77,15.65-2.55,0-6.38-.64-7.34,2.23m-6.71-1.91a3.16,3.16,0,0,1,2.56,3.51,3,3,0,0,1-3.51,2.24,3.17,3.17,0,0,1-2.56-3.52,2.94,2.94,0,0,1,3.51-2.23m-7.34-1.28a1.63,1.63,0,0,1,1.28,1.6c0,.64-1,1.27-1.92,1a1.63,1.63,0,0,1-1.28-1.6,1.55,1.55,0,0,1,1.92-1m-25.23-33.85C489.14,698,587.17,679.77,576,614.63c8,2.56,12.13,10.22,13.09,21.08,1.27,12.77-2.24,24.58-3.83,37.36-2.56,19.79-2.24,38.31,1,61-6.38,4.15-14.37,7.67-22.35,10.54-2.23-9.26-5.11-19.16-7.34-28.1a42.5,42.5,0,0,1-6.07,1.6c2.24,9.58,4.79,19.16,7.35,28.42a33.57,33.57,0,0,1-5.43,1.27c-3.52-8.62-7-17.24-10.54-25.54a78.1,78.1,0,0,1-8.62-.64c4.15,8.94,8.3,18.52,12.45,27.78-2.87.32-5.43,1-8,1-4.79-9.26-9.9-18.84-14.69-28.1a61.82,61.82,0,0,1-7.66-.64c5.43,9.58,11.17,19.8,16.28,29.38h.32a58.39,58.39,0,0,1-10.86-.64l-36.72-51.73c21.08,18.52,65.14,18.84,84.94-2.23,5.75-4.79,1.92-15-8-7A63,63,0,0,1,531,702.12c-17.24,2.88-35.12-.32-49.17-10.53-12.13-9-20.44-22-16-40.88"/></g><path class="cls-3" d="M568.33,529.7c-22.35,10.21-28.74,42.46-27.46,65.45.64,8.63,1.6,17.57-2.23,25.87-10.54,24-47.26,9.26-39.28-23.95,8-33.53,24.59-63.86,24.91-103.46,0-32.57-13.09-61.62-39.6-87.81,8.31,28.74-5.43,43.75-21.07,61-8.62,9.58-17.24,18.52-21.08,31-5.74,16.93-3.83,35.77,8.63,52.37-1.28-10.54-1.6-20.43,0-29.37,5.42-25.87,39.27-38,47.57-60.67,8.94,14.37,6.07,35.12-1.59,54.6-14.37,30-43.43,70.88-35.77,105.69,4.47,21.07,15,36.08,34.81,44.06,24.27,9.9,54.28,0,66.1-24.26,5.74-11.82,6.06-25.23,2.23-39.6-13.09-44.06-5.11-58.11,3.83-70.88"/><path class="cls-6" d="M562.9,534.8c-.63.64-1.27,1-1.91,1.6a35.19,35.19,0,0,0-6.39,7.35c-9.9,14-12.77,34.8-11.81,51.08v1.92c.64,8.3,1.27,16.92-2.56,24.91-3.51,7.66-9.58,11.81-16,12.45a23.4,23.4,0,0,1-10.54-1.28,23,23,0,0,1-9.26-6.38c-6.07-6.39-9.58-16.93-6.39-29.7,2.56-11.18,6.39-22,9.9-33.21,7.35-21.71,14.69-43.74,14.69-69.93A111.49,111.49,0,0,0,513.09,448c-5.75-12.77-14.05-24.9-24.9-36.72,4.79,25.55-8,39.92-23,56.52h0l-.64.64c-8.31,8.94-16.29,17.88-20.12,29.69h0c-.64,2.24-1.28,4.47-1.92,7a53.67,53.67,0,0,0,6.39,38,77.71,77.71,0,0,1-.32-8.62,68.62,68.62,0,0,1,1.28-14.37c2.87-14.69,14.37-24.91,25.54-34.81,9.26-8.3,18.2-16.28,22-26.18l1.27-3.19,1.92,2.87h0a63.57,63.57,0,0,1,3.19,6.7,27.6,27.6,0,0,1,1.92,7.35c2.23,12.77-1,27.78-6.39,42.15h0c-3.19,6.38-6.7,13.41-10.86,20.75-14.36,26.19-30.65,57.16-24.9,83.66,2.23,10.22,6.07,19.16,11.49,26.19a52.21,52.21,0,0,0,22.36,16.6h0a53.48,53.48,0,0,0,10.21,2.87,39,39,0,0,0,10.54.64c17.88-.64,35.12-10.22,43.43-26.82a45,45,0,0,0,4.47-18.2,74.62,74.62,0,0,0-2.24-20.12c-6.38-22.35-7.66-37.36-6.06-48.21-.32-6.71,2.23-12.46,5.1-17.57m4.47-6.7h0l2.24,2.55c-4.15,6.39-8.3,12.78-9.9,23-1.6,10.54-.32,24.91,6.07,46.62h0a72.72,72.72,0,0,1,2.55,21.4,51.28,51.28,0,0,1-4.79,19.47c-8.62,17.89-27.14,28.42-46.3,28.74a65.42,65.42,0,0,1-11.17-.64A42,42,0,0,1,495.21,666h0c-10.22-4.15-17.88-9.9-23.63-17.56S462,631.56,459.45,620.7c-6.07-27.78,10.85-59.39,25.22-86.21,3.83-7.35,7.67-14,10.54-20.44,5.43-13.73,8.3-28.1,6.39-40.23a51,51,0,0,0-1.6-6.71,22,22,0,0,0-1.28-3.19c-4.47,9.26-12.77,16.6-21.39,24.27-10.86,9.57-21.71,19.47-24.59,32.88a62.64,62.64,0,0,0-1.27,13.73,81.51,81.51,0,0,0,1.27,15l-3.19,1.28a59.25,59.25,0,0,1-12.13-39c.31-2.55.63-5.11.95-7.66.64-2.55,1.28-4.79,1.92-7.34h0c4.15-12.46,12.45-21.72,20.75-31l.64-.64h0c15.33-16.92,28.74-31.61,20.76-59.39l2.87-1.59c13.41,13.41,23.31,27.14,30,42.15a111.6,111.6,0,0,1,9.9,46.93c0,26.51-7.67,48.86-15,70.89-3.51,10.86-7.35,21.71-9.9,32.89-2.87,11.81.32,20.75,5.75,26.82a18.75,18.75,0,0,0,8,5.43,21.69,21.69,0,0,0,8.94,1.28c5.43-.64,10.54-4.15,13.41-10.54,3.19-7.34,2.56-15.33,2.24-23.31h0v-1.92c-1-16.6,1.91-38.31,12.45-53a41.9,41.9,0,0,1,7-8,51.33,51.33,0,0,1,9.26-6.07"/></svg>