<svg xmlns="http://www.w3.org/2000/svg" viewBox="0 0 69.2 90.72"><defs><style>.cls-1{fill:#fff;}</style></defs><g id="Layer_2" data-name="Layer 2"><g id="logoing"><g id="right_trophy" data-name="right trophy"><path class="cls-1" d="M38.93,66.79l-.21-.56a14,14,0,0,1-1.21-5.65c0-1.17,0-2.13,0-2.85a11.67,11.67,0,0,0-5.84-.08c0,.72,0,1.7,0,2.91a14.11,14.11,0,0,1-1.23,5.7c-.07.17-.14.36-.21.55a6.85,6.85,0,0,0-.48,2.75,6.15,6.15,0,0,0,.71,2.74A4.77,4.77,0,0,0,33,74.54a4.66,4.66,0,0,0,1,.19,5.63,5.63,0,0,0,1.2,0,4.52,4.52,0,0,0,1-.19,4.78,4.78,0,0,0,2.48-2.23,6,6,0,0,0,.71-2.75A7,7,0,0,0,38.93,66.79Zm-7.71-15c.18,1,.29,2,.36,2.82a14.51,14.51,0,0,1,6.05.06c.07-.85.18-1.8.35-2.79A11.62,11.62,0,0,0,31.22,51.78ZM56.8,5.1c0-1.68,0-3.36,0-5L35.5,0,33.82,0,12.5.06c0,1.68-.05,3.35-.07,5H0c.06,5.66.11,11.32.18,17A17.11,17.11,0,0,0,5.5,32.22,14.67,14.67,0,0,0,15.75,36,20.83,20.83,0,0,0,20,41.6c1.86,1.71,5.57,4.42,8.05,5.23a3.79,3.79,0,0,1,1.31.71,4.09,4.09,0,0,1,1,1.36,14.31,14.31,0,0,1,8.35.08,4.14,4.14,0,0,1,1.09-1.47,4,4,0,0,1,1.3-.7c2.47-.8,6.18-3.51,8-5.22A20.88,20.88,0,0,0,53.45,36a14.66,14.66,0,0,0,10.22-3.75A17.13,17.13,0,0,0,69,22.1q.1-8.49.2-17ZM10.43,30a9.12,9.12,0,0,1-3.84-2.63,12.08,12.08,0,0,1-2.66-4.84v-13h8.24c-.19,3.23-.26,6.8-.13,10.65.13,3.7.42,7.12.81,10.22A8.15,8.15,0,0,1,10.43,30Zm55.32-7.47a12.08,12.08,0,0,1-2.66,4.84A9.31,9.31,0,0,1,59.24,30a8.14,8.14,0,0,1-2.41.41c.38-3.1.67-6.52.8-10.22.13-3.85.06-7.42-.12-10.65h8.24Z"/></g><path class="cls-1" d="M28.85,63.79,21,55.08a20.08,20.08,0,0,0-5,6.22,20.58,20.58,0,0,0-1.31,15C17.39,85,25.27,88.49,26.8,89.11a21.87,21.87,0,0,0,21-2.53C49.35,85.47,55.25,81,56.28,73c1.35-10.57-7-17.65-7.57-18.15Q44.87,59.2,41,63.57A9.73,9.73,0,0,1,42.46,69c0,.76-.2,4.38-3.11,6.51a8.06,8.06,0,0,1-9.62-.3c-3.37-2.72-3.66-7.76-1.84-10.41A5.62,5.62,0,0,1,28.85,63.79Z"/></g></g></svg>