<svg xmlns="http://www.w3.org/2000/svg" viewBox="0 0 173.25 48.06"><defs><style>.cls-1,.cls-11,.cls-12,.cls-13,.cls-15,.cls-16,.cls-17,.cls-2,.cls-7{fill:none;}.cls-1,.cls-11,.cls-12,.cls-13,.cls-15,.cls-16,.cls-17,.cls-2,.cls-4,.cls-5,.cls-6,.cls-7{stroke:#fff;}.cls-1,.cls-10,.cls-11,.cls-12,.cls-13,.cls-14,.cls-15,.cls-2,.cls-4,.cls-5,.cls-6,.cls-7,.cls-8,.cls-9{stroke-linecap:round;}.cls-1,.cls-10,.cls-11,.cls-12,.cls-13,.cls-14,.cls-15,.cls-16,.cls-17,.cls-2,.cls-4,.cls-5,.cls-6,.cls-7,.cls-8,.cls-9{stroke-miterlimit:10;}.cls-1,.cls-6{stroke-width:0.97px;}.cls-14,.cls-2,.cls-5{stroke-width:0.36px;}.cls-10,.cls-14,.cls-3,.cls-8,.cls-9{fill:#fff;}.cls-4,.cls-5,.cls-6{fill:#2d2d2d;}.cls-13,.cls-16,.cls-4{stroke-width:0.48px;}.cls-7{stroke-width:0.97px;}.cls-10,.cls-14,.cls-8,.cls-9{stroke:#fdfefe;}.cls-8{stroke-width:0.36px;}.cls-9{stroke-width:0.29px;}.cls-10{stroke-width:0.09px;}.cls-11{stroke-width:0.12px;}.cls-12{stroke-width:0.72px;}.cls-15{stroke-width:1.21px;}.cls-17{stroke-width:0.51px;}</style></defs><g id="Layer_2" data-name="Layer 2"><g id="logoing"><path class="cls-1" d="M53.46,2.09A10.11,10.11,0,0,0,48.34.79a10.29,10.29,0,0,0-7.65,3.77,9.78,9.78,0,0,0-1.48,9.5,9.91,9.91,0,0,0,5.12,5.24,10,10,0,0,0,7.1.56,8.92,8.92,0,0,0,2-.93"/><path class="cls-2" d="M52.92,3.25a8.67,8.67,0,0,0-11,2.13,8.44,8.44,0,0,0-1.28,8.19,8.86,8.86,0,0,0,10.53,5,7.46,7.46,0,0,0,1.71-.8"/><line class="cls-1" x1="53.96" y1="0.48" x2="53.96" y2="5.17"/><line class="cls-1" x1="107.22" y1="8.2" x2="107.22" y2="12.89"/><line class="cls-1" x1="109.57" y1="0.8" x2="109.57" y2="5.49"/><line class="cls-1" x1="109.57" y1="15.77" x2="109.57" y2="20.46"/><line class="cls-1" x1="78.56" y1="1" x2="78.56" y2="20.06"/><line class="cls-1" x1="95.93" y1="1" x2="95.93" y2="20.06"/><line class="cls-1" x1="113.36" y1="0.92" x2="113.36" y2="19.98"/><line class="cls-1" x1="53.96" y1="15.41" x2="53.96" y2="20.84"/><path class="cls-3" d="M46,5.22a5.84,5.84,0,0,0-2.84,2.66,5.77,5.77,0,0,0,3,7.89Q46.11,10.51,46,5.22Z"/><line class="cls-4" x1="48.14" y1="2.85" x2="48.14" y2="11.57"/><line class="cls-4" x1="80.04" y1="5.48" x2="80.04" y2="19.37"/><line class="cls-4" x1="48.14" y1="12.2" x2="48.14" y2="12.65"/><line class="cls-4" x1="63.88" y1="13.31" x2="63.88" y2="13.76"/><line class="cls-5" x1="60.42" y1="2.65" x2="60.68" y2="3.01"/><line class="cls-5" x1="61.21" y1="3.62" x2="61.46" y2="3.99"/><line class="cls-5" x1="59.73" y1="1.74" x2="59.99" y2="2.11"/><line class="cls-5" x1="68.91" y1="2.59" x2="68.64" y2="2.95"/><line class="cls-5" x1="68.21" y1="3.63" x2="67.93" y2="3.98"/><line class="cls-5" x1="69.57" y1="1.67" x2="69.3" y2="2.03"/><line class="cls-4" x1="63.88" y1="14.55" x2="63.88" y2="14.99"/><line class="cls-4" x1="65.52" y1="13.31" x2="65.52" y2="13.76"/><line class="cls-4" x1="80.04" y1="4.25" x2="80.04" y2="4.69"/><line class="cls-4" x1="80.04" y1="3.19" x2="80.04" y2="3.64"/><line class="cls-4" x1="80.02" y1="1.32" x2="80.02" y2="2.53"/><line class="cls-4" x1="97.43" y1="5.77" x2="97.43" y2="19.65"/><line class="cls-5" x1="114.66" y1="1.26" x2="114.66" y2="15.14"/><line class="cls-4" x1="97.43" y1="4.53" x2="97.43" y2="4.98"/><line class="cls-4" x1="97.43" y1="3.47" x2="97.43" y2="3.92"/><line class="cls-5" x1="114.66" y1="16.71" x2="114.66" y2="17.16"/><line class="cls-5" x1="114.66" y1="15.65" x2="114.66" y2="16.1"/><line class="cls-4" x1="97.41" y1="1.61" x2="97.41" y2="2.81"/><line class="cls-5" x1="114.66" y1="17.73" x2="114.66" y2="19.43"/><line class="cls-5" x1="124.98" y1="15.04" x2="125.19" y2="15.43"/><line class="cls-5" x1="124.5" y1="14.1" x2="124.7" y2="14.49"/><line class="cls-5" x1="125.44" y1="15.95" x2="127.28" y2="19.53"/><line class="cls-4" x1="65.52" y1="14.55" x2="65.52" y2="14.99"/><line class="cls-4" x1="48.16" y1="13.31" x2="48.16" y2="13.76"/><line class="cls-4" x1="48.16" y1="14.55" x2="48.16" y2="18.15"/><line class="cls-4" x1="63.88" y1="15.77" x2="63.88" y2="19.38"/><line class="cls-4" x1="65.52" y1="15.77" x2="65.52" y2="19.38"/><line class="cls-4" x1="65.52" y1="10.36" x2="65.52" y2="12.43"/><line class="cls-5" x1="77.52" y1="27.49" x2="77.52" y2="29.56"/><line class="cls-5" x1="89.23" y1="27.49" x2="89.23" y2="29.56"/><line class="cls-4" x1="63.88" y1="10.36" x2="63.88" y2="12.43"/><path class="cls-1" d="M72,28.82a10,10,0,0,0-12.77,2.47,9.78,9.78,0,0,0-1.48,9.5A9.91,9.91,0,0,0,62.87,46a10,10,0,0,0,7.1.56,8.92,8.92,0,0,0,2-.93"/><path class="cls-2" d="M71.46,30a8.67,8.67,0,0,0-11,2.13,8.44,8.44,0,0,0-1.28,8.19,8.86,8.86,0,0,0,10.53,5,7.46,7.46,0,0,0,1.71-.8"/><line class="cls-1" x1="72.5" y1="27.21" x2="72.5" y2="31.9"/><line class="cls-1" x1="72.5" y1="42.14" x2="72.5" y2="47.57"/><path class="cls-3" d="M64.56,32a5.75,5.75,0,0,0-2.84,2.65,5.85,5.85,0,0,0-.12,4.81,6,6,0,0,0,3.15,3.09Q64.65,37.23,64.56,32Z"/><line class="cls-4" x1="66.68" y1="29.58" x2="66.68" y2="38.3"/><line class="cls-4" x1="66.68" y1="38.93" x2="66.68" y2="39.38"/><line class="cls-4" x1="66.7" y1="40.04" x2="66.7" y2="40.49"/><line class="cls-4" x1="66.7" y1="41.28" x2="66.7" y2="44.88"/><line class="cls-6" x1="56.34" y1="0.79" x2="60.25" y2="0.79"/><line class="cls-6" x1="69.18" y1="0.79" x2="73.08" y2="0.79"/><line class="cls-6" x1="94.38" y1="0.8" x2="109.44" y2="0.8"/><line class="cls-6" x1="94.38" y1="20.46" x2="109.44" y2="20.46"/><line class="cls-6" x1="112.41" y1="20.28" x2="116.31" y2="20.28"/><line class="cls-1" x1="96.65" y1="28.26" x2="96.65" y2="47.23"/><line class="cls-6" x1="95.71" y1="47.23" x2="99.61" y2="47.23"/><line class="cls-6" x1="124.95" y1="20.28" x2="128.86" y2="20.28"/><line class="cls-6" x1="62.98" y1="20.28" x2="66.88" y2="20.28"/><line class="cls-6" x1="74.58" y1="27.65" x2="78.48" y2="27.65"/><line class="cls-6" x1="88.35" y1="27.65" x2="92.26" y2="27.65"/><polyline class="cls-1" points="57.68 1 64.83 9.93 71.69 1.04"/><polyline class="cls-2" points="67.5 4.57 64.79 7.96 61.86 4.57"/><path class="cls-1" d="M76.65.63l11,.06A4.41,4.41,0,0,1,90,2.11a4.55,4.55,0,0,1,1,3.05,4.46,4.46,0,0,1-1.45,3.18,4.39,4.39,0,0,1-2.72,1.05l-6.5,0"/><path class="cls-7" d="M87.79,9.38a4.89,4.89,0,0,1,2.16.81A5.53,5.53,0,0,1,92.17,15a6.13,6.13,0,0,1-2.9,4.67h0a4.4,4.4,0,0,1-2.39.68l-9.87,0"/><circle class="cls-8" cx="87.13" cy="5.25" r="1.2"/><circle class="cls-9" cx="116.83" cy="7.49" r="0.96"/><circle class="cls-10" cx="122.6" cy="7.49" r="0.3"/><circle class="cls-10" cx="123.44" cy="7.49" r="0.3"/><circle class="cls-10" cx="124.25" cy="7.49" r="0.3"/><circle class="cls-11" cx="87.13" cy="5.25" r="1.68"/><line class="cls-2" x1="107.22" y1="10.55" x2="97.43" y2="10.55"/><polygon class="cls-2" points="99.17 2.39 99.17 8.96 107.38 2.39 99.17 2.39"/><polygon class="cls-3" points="100.5 3.65 100.5 6.3 103.98 3.65 100.5 3.65"/><polygon class="cls-2" points="99.17 18.99 99.17 12.41 107.38 18.99 99.17 18.99"/><polygon class="cls-3" points="100.5 17.73 100.5 15.07 103.98 17.73 100.5 17.73"/><path class="cls-12" d="M112,.57l9,.15a6.85,6.85,0,0,1,3.7,1.57,7.09,7.09,0,0,1,.13,10.43,6.83,6.83,0,0,1-7,1.23,6.52,6.52,0,0,1-2.4-1.69"/><path class="cls-13" d="M116.11,4.36a5.89,5.89,0,0,1,4.56-2.07,5.53,5.53,0,0,1,3.83,1.82,5.45,5.45,0,0,1,.24,6.64,5.41,5.41,0,0,1-4,2A6.08,6.08,0,0,1,116,10.53l5.06-3Z"/><line class="cls-5" x1="98" y1="28.11" x2="98" y2="41.99"/><line class="cls-5" x1="98" y1="43.56" x2="98" y2="44"/><line class="cls-5" x1="98" y1="42.5" x2="98" y2="42.95"/><line class="cls-5" x1="98" y1="44.58" x2="98" y2="46.28"/><path class="cls-12" d="M95.35,27.41l9,.16a6.85,6.85,0,0,1,3.7,1.57,7.09,7.09,0,0,1,.13,10.43,6.82,6.82,0,0,1-7,1.23,6.6,6.6,0,0,1-2.41-1.69"/><path class="cls-13" d="M99.45,31.21A5.83,5.83,0,0,1,104,29.14a5.29,5.29,0,0,1,4.08,8.45,5.46,5.46,0,0,1-4,2,6,6,0,0,1-4.78-2.22l5-3Z"/><line class="cls-1" x1="123.05" y1="14.11" x2="126.23" y2="19.98"/><polygon class="cls-9" points="99.61 33.28 99.61 35.95 101.91 34.37 99.61 33.28"/><circle class="cls-10" cx="106" cy="34.37" r="0.3"/><circle class="cls-10" cx="77.52" cy="30.4" r="0.3"/><circle class="cls-10" cx="77.52" cy="31.4" r="0.3"/><circle class="cls-10" cx="77.52" cy="32.39" r="0.3"/><circle class="cls-10" cx="89.23" cy="30.41" r="0.3"/><circle class="cls-10" cx="89.23" cy="31.42" r="0.3"/><circle class="cls-10" cx="89.23" cy="32.4" r="0.3"/><circle class="cls-10" cx="106.84" cy="34.37" r="0.3"/><circle class="cls-10" cx="107.65" cy="34.37" r="0.3"/><path class="cls-2" d="M77.49,33.26q0,3.32.07,6.63A5.57,5.57,0,0,0,79,43.61l0,0a6.12,6.12,0,0,0,4.6,2A6,6,0,0,0,88,43.39a5.49,5.49,0,0,0,.86-1.6,5.71,5.71,0,0,0,.28-1.74l0-6.88"/><path class="cls-14" d="M79.05,40.06a4.57,4.57,0,0,0,1.19,2.72,4.22,4.22,0,0,0,3,1.4,4.27,4.27,0,0,0,3.17-1.53,4.34,4.34,0,0,0,1-2.57Z"/><line class="cls-12" x1="75.55" y1="28.52" x2="75.55" y2="39.49"/><line class="cls-12" x1="91.06" y1="28.52" x2="91.06" y2="39.38"/><path class="cls-15" d="M75.53,39.41A8.42,8.42,0,0,0,77,43.91a8.2,8.2,0,0,0,6.85,3.32,8,8,0,0,0,6-3.57,8.41,8.41,0,0,0,1.23-4.2"/><polyline class="cls-16" points="36.64 10.54 0.24 10.53 0.24 35.95 53.96 35.95"/><polyline class="cls-17" points="129.56 10.55 172.99 10.53 172.99 35.95 113.36 35.95"/></g></g></svg>